<svg xmlns="http://www.w3.org/2000/svg" xmlns:xlink="http://www.w3.org/1999/xlink" id="euQbB6zmqYj1" viewBox="0 0 204 204"><style><![CDATA[#euQbB6zmqYj2_tr {animation: euQbB6zmqYj2_tr__tr 6000ms linear infinite normal forwards}@keyframes euQbB6zmqYj2_tr__tr { 0% {transform: translate(101.242195px,101.554037px) rotate(360deg)} 100% {transform: translate(101.242195px,101.554037px) rotate(0deg)}}]]></style><g id="euQbB6zmqYj2_tr" transform="translate(101.242195,101.554037) rotate(360)"><g id="euQbB6zmqYj2" transform="translate(-101.554021,-101.554037)"><circle id="euQbB6zmqYj3" r="71.7791" transform="matrix(0.75666 0.653809 -0.653809 0.75666 101.554027 101.554028)" fill="rgb(255,255,255)" stroke="rgb(140,64,11)" stroke-width="0.441718"></circle><g id="euQbB6zmqYj4" transform="matrix(1 0 0 1 0 0.000001)"><path id="euQbB6zmqYj5" d="M66.7309,136.917C65.8302,138.337,66.1417,139.952,67.3352,141.051C68.853,142.449,71.0319,142.293,72.7611,140.416C74.4903,138.539,74.4677,136.355,72.9498,134.956C71.7564,133.857,70.1213,133.679,68.7803,134.693L69.4987,135.354C70.4304,134.692,71.5428,134.903,72.3307,135.628C73.4083,136.621,73.4856,138.235,72.0659,139.776C70.6462,141.317,69.0318,141.372,67.9543,140.379C67.1664,139.653,66.8652,138.562,67.4492,137.579L66.7309,136.917Z" fill="rgb(62,57,57)" stroke="none" stroke-width="1"></path><path id="euQbB6zmqYj6" d="M58.6511,130.848L59.1928,131.661L65.9052,127.188L65.3635,126.375L58.6511,130.848Z" fill="rgb(62,57,57)" stroke="none" stroke-width="1"></path><path id="euQbB6zmqYj7" d="M62.1618,120.955L61.8125,120.043L58.87,121.169L58.2391,119.521C58.2137,119.455,58.1898,119.393,58.1621,119.332L60.5,116.614L60.0944,115.555L57.6347,118.45C56.9398,117.615,55.9845,117.466,54.984,117.849C53.6526,118.359,52.9784,119.528,53.6543,121.294L54.6289,123.839L62.1618,120.955ZM58.0461,121.485L55.0888,122.617L54.4748,121.013C54.0073,119.792,54.4228,119.093,55.3277,118.747C56.2325,118.4,56.9645,118.66,57.4264,119.866L58.0461,121.485Z" fill="rgb(62,57,57)" stroke="none" stroke-width="1"></path><path id="euQbB6zmqYj8" d="M50.0226,104.473L55.2718,104.107C56.4505,104.025,57.3555,104.776,57.4491,106.119C57.5426,107.463,56.7503,108.332,55.5716,108.414L50.3224,108.779L50.3902,109.754L55.718,109.383C57.3682,109.268,58.4924,107.95,58.3606,106.056C58.2288,104.162,56.9328,103.013,55.2826,103.128L49.9548,103.498L50.0226,104.473Z" fill="rgb(62,57,57)" stroke="none" stroke-width="1"></path><path id="euQbB6zmqYj9" d="M58.4225,95.4333L58.642,94.4815L55.5718,93.7734L55.9683,92.0541C55.9843,91.985,55.9993,91.9198,56.0105,91.8536L59.467,90.9047L59.7219,89.7994L56.0653,90.8275C55.9547,89.747,55.2453,89.0903,54.2014,88.8495C52.8121,88.5291,51.6001,89.1226,51.1752,90.9648L50.5627,93.6205L58.4225,95.4333ZM54.7121,93.5751L51.6265,92.8635L52.0124,91.1902C52.3063,89.9161,53.0413,89.5682,53.9854,89.786C54.9295,90.0037,55.3919,90.6277,55.1016,91.8865L54.7121,93.5751Z" fill="rgb(62,57,57)" stroke="none" stroke-width="1"></path><path id="euQbB6zmqYj10" d="M59.8458,76.0498L60.3493,75.1762C58.8485,74.6568,57.2674,75.2547,56.4178,76.7289C55.3853,78.5204,56.0343,80.5809,58.2455,81.8553C60.4567,83.1297,62.559,82.6685,63.6289,80.8122C64.5887,79.147,64.1641,77.3203,62.434,76.3232L61.6833,75.8905L60.1492,78.5521L60.9,78.9848L61.962,77.1421C63.204,77.8898,63.5197,79.1718,62.8373,80.3559C62.0899,81.6526,60.5329,82.0826,58.7175,81.0364C56.9021,79.9901,56.4936,78.4273,57.2095,77.1851C57.7916,76.1751,58.7568,75.8176,59.8458,76.0498Z" fill="rgb(62,57,57)" stroke="none" stroke-width="1"></path><path id="euQbB6zmqYj11" d="M64.4793,65.9872L63.8054,66.6943L69.6441,72.2595L70.3181,71.5525L64.4793,65.9872Z" fill="rgb(62,57,57)" stroke="none" stroke-width="1"></path><path id="euQbB6zmqYj12" d="M75.1645,67.034L74.5936,64.678L77.3231,62.8935L79.2522,64.3615L80.1093,63.8012L73.2165,58.6705L72.3726,59.2222L74.3074,67.5943L75.1645,67.034ZM74.3766,63.7846L73.4664,60.0317L73.5192,59.9972L76.5918,62.3363L74.3766,63.7846Z" fill="rgb(62,57,57)" stroke="none" stroke-width="1"></path><path id="euQbB6zmqYj13" d="M95.8891,56.9356C96.8395,56.8226,97.5184,55.9605,97.4054,55.0102C97.2924,54.0598,96.4304,53.3809,95.48,53.4939C94.5296,53.6068,93.8507,54.4689,93.9637,55.4193C94.0767,56.3696,94.9387,57.0485,95.8891,56.9356Z" fill="rgb(140,64,11)" stroke="none" stroke-width="1"></path><path id="euQbB6zmqYj14" d="M121.193,57.8241C122.07,55.4272,121.211,53.4188,119.273,52.7099C117.335,52.001,115.382,52.9813,114.506,55.3782C113.629,57.7751,114.488,59.7836,116.426,60.4925C118.365,61.2013,120.317,60.221,121.193,57.8241ZM120.306,57.4995C119.586,59.4673,118.116,60.1376,116.74,59.6343C115.364,59.1311,114.674,57.6707,115.393,55.7029C116.113,53.7351,117.583,53.0648,118.959,53.5681C120.335,54.0713,121.025,55.5316,120.306,57.4995Z" fill="rgb(62,57,57)" stroke="none" stroke-width="1"></path><path id="euQbB6zmqYj15" d="M125.986,64.8697L126.766,65.4583L128.665,62.9439L130.073,64.0072C130.129,64.0499,130.183,64.0902,130.239,64.1275L129.695,67.6704L130.6,68.3539L131.153,64.596C132.185,64.9358,133.074,64.5558,133.719,63.7009C134.579,62.5632,134.531,61.2144,133.022,60.0752L130.847,58.4327L125.986,64.8697ZM129.196,62.2398L131.105,59.7128L132.475,60.7476C133.519,61.5356,133.536,62.3486,132.952,63.1218C132.369,63.895,131.61,64.0626,130.579,63.2841L129.196,62.2398Z" fill="rgb(62,57,57)" stroke="none" stroke-width="1"></path><path id="euQbB6zmqYj16" d="M140.818,68.2303L142.342,70.2582L136.586,74.5825L137.172,75.3635L142.929,71.0392L144.452,73.0671L145.145,72.5467L141.511,67.7098L140.818,68.2303Z" fill="rgb(62,57,57)" stroke="none" stroke-width="1"></path><path id="euQbB6zmqYj17" d="M148.258,88.2123C150.657,87.3416,151.642,85.392,150.938,83.452C150.234,81.512,148.228,80.6479,145.829,81.5185C143.43,82.3891,142.445,84.3388,143.149,86.2788C143.853,88.2188,145.859,89.0829,148.258,88.2123ZM147.936,87.3237C145.966,88.0385,144.508,87.3444,144.008,85.9671C143.508,84.5899,144.182,83.1218,146.151,82.4071C148.121,81.6923,149.58,82.3864,150.08,83.7637C150.579,85.1409,149.905,86.6089,147.936,87.3237Z" fill="rgb(62,57,57)" stroke="none" stroke-width="1"></path><path id="euQbB6zmqYj18" d="M151.744,101.731L151.78,102.739C153.328,102.384,154.352,101.04,154.292,99.3392C154.218,97.2728,152.576,95.869,150.026,95.9595C147.475,96.0501,145.936,97.5551,146.013,99.6963C146.081,101.617,147.409,102.941,149.404,102.871L150.27,102.84L150.161,99.7697L149.295,99.8004L149.371,101.926C147.921,101.95,146.974,101.03,146.926,99.6638C146.873,98.1681,147.965,96.9786,150.059,96.9042C152.153,96.8298,153.328,97.9389,153.379,99.3716C153.42,100.537,152.791,101.351,151.744,101.731Z" fill="rgb(62,57,57)" stroke="none" stroke-width="1"></path><path id="euQbB6zmqYj19" d="M151.622,118.546L151.885,117.622L145.778,115.885L145.8,115.809L153.113,113.303L153.372,112.394L145.613,110.187L145.346,111.127L151.438,112.86L151.416,112.935L144.122,115.43L143.863,116.34L151.622,118.546Z" fill="rgb(62,57,57)" stroke="none" stroke-width="1"></path><path id="euQbB6zmqYj20" d="M140.801,123.432L142.264,125.365L140.473,128.09L138.118,127.514L137.556,128.369L145.923,130.325L146.477,129.482L141.363,122.577L140.801,123.432ZM142.819,126.098L145.151,129.176L145.116,129.229L141.365,128.31L142.819,126.098ZM147.118,129.998L146.668,130.683L147.52,132.713L148.117,131.805L147.118,129.998Z" fill="rgb(62,57,57)" stroke="none" stroke-width="1"></path><path id="euQbB6zmqYj21" d="M138.1,138.775L136.162,140.412L131.516,134.912L130.77,135.542L135.416,141.042L133.478,142.679L134.037,143.341L138.659,139.437L138.1,138.775Z" fill="rgb(62,57,57)" stroke="none" stroke-width="1"></path><path id="euQbB6zmqYj22" d="M126.023,148.389L126.89,147.939L123.171,140.782L122.304,141.232L126.023,148.389Z" fill="rgb(62,57,57)" stroke="none" stroke-width="1"></path><path id="euQbB6zmqYj23" d="M111.596,150.815C112.281,152.35,113.799,152.983,115.375,152.597C117.379,152.105,118.454,150.203,117.846,147.724C117.237,145.246,115.405,144.057,113.4,144.549C111.824,144.935,110.772,146.199,110.875,147.877L111.824,147.645C111.787,146.502,112.578,145.691,113.618,145.436C115.041,145.087,116.428,145.915,116.928,147.95C117.427,149.984,116.58,151.36,115.157,151.709C114.117,151.965,113.041,151.612,112.545,150.582L111.596,150.815Z" fill="rgb(62,57,57)" stroke="none" stroke-width="1"></path><path id="euQbB6zmqYj24" d="M102.689,146.253L101.734,148.481L98.4793,148.273L97.8152,145.942L96.7932,145.876L99.235,154.115L100.241,154.179L103.711,146.318L102.689,146.253ZM101.372,149.326L99.8508,152.875L99.7879,152.871L98.7306,149.157L101.372,149.326Z" fill="rgb(62,57,57)" stroke="none" stroke-width="1"></path><path id="euQbB6zmqYj25" d="M83.5043,145.499C82.6758,145.02,81.6157,145.303,81.1364,146.131C80.6572,146.96,80.9402,148.02,81.7687,148.499C82.5971,148.979,83.6572,148.696,84.1365,147.867C84.6158,147.039,84.3327,145.979,83.5043,145.499Z" fill="rgb(140,64,11)" stroke="none" stroke-width="1"></path><circle id="euQbB6zmqYj26" r="29.5951" transform="matrix(0.75666 0.653809 -0.653809 0.75666 101.596994 102.175985)" fill="rgb(255,255,255)" stroke="rgb(140,64,11)" stroke-width="0.883436"></circle></g></g></g><g id="euQbB6zmqYj27" clip-path="url(#euQbB6zmqYj41)"><g id="euQbB6zmqYj28"><g id="euQbB6zmqYj29"><path id="euQbB6zmqYj30" d="M92.7845,110.87C90.4936,110.705,88.2632,110.057,86.2402,108.97L86.7513,108.038C88.5685,109.004,90.5594,109.601,92.6083,109.795C94.0387,108.407,94.9384,106.563,95.1529,104.581L96.2146,104.622C95.9926,106.965,94.9057,109.142,93.1658,110.728C93.0626,110.824,92.9251,110.875,92.7845,110.87Z" fill="rgb(140,64,11)" stroke="none" stroke-width="1"></path><path id="euQbB6zmqYj31" d="M99.2744,107.929C97.5979,107.865,97.2279,105.846,97.2734,104.663L98.3352,104.703C98.3343,104.725,98.2885,106.828,99.3152,106.868C99.8649,106.924,100.357,106.524,100.413,105.974C100.417,105.93,100.419,105.886,100.418,105.843L101.479,105.888C101.469,107.028,100.536,107.944,99.3949,107.934C99.355,107.934,99.3147,107.932,99.2744,107.929Z" fill="rgb(140,64,11)" stroke="none" stroke-width="1"></path><path id="euQbB6zmqYj32" d="M94.743,115.198C93.3712,115.145,84.1738,113.542,84.2483,111.605C84.2874,110.59,85.3968,109.044,85.8952,108.402L85.0312,105.984C84.9732,105.819,85,105.636,85.1032,105.494L86.2262,103.943C86.2615,103.894,86.3057,103.852,86.3554,103.817L88.5401,102.306C88.6346,102.241,88.748,102.208,88.8627,102.213C89.4124,102.269,89.9041,101.869,89.9603,101.319C89.9646,101.277,89.9663,101.234,89.9652,101.192C90.0502,100.544,89.7783,99.9,89.2537,99.5098C89.0832,99.4097,88.9802,99.225,88.9852,99.0274L89.0464,97.4348C89.0577,97.1418,89.3047,96.9131,89.5977,96.9244C90.102,96.9438,91.4238,96.0275,92.4011,95.1395C92.7038,94.4446,94.3726,90.7815,96.4825,89.3208L96.8387,89.0719C98.7775,87.7079,98.9325,87.7138,106.953,88.0223C115.981,88.3695,118.793,98.1089,118.713,100.171C118.64,101.09,118.377,101.983,117.94,102.795C117.273,104.104,116.903,105.543,116.855,107.011C116.651,112.328,112.48,115.349,108.566,115.198C104.369,115.037,102.544,113.012,102.019,112.281C100.937,112.267,99.9518,111.652,99.4642,110.685C99.3153,110.783,99.1857,110.862,99.0862,110.922C98.7811,111.831,97.4376,115.302,94.743,115.198ZM85.318,111.563C86.0216,112.36,92.1439,114.035,94.7838,114.136C96.9603,114.22,98.1217,110.453,98.1327,110.415C98.172,110.28,98.2635,110.166,98.3868,110.098C98.6727,109.936,98.9486,109.757,99.2129,109.562C99.2304,109.549,99.2675,109.524,99.2675,109.524C100.011,108.975,100.861,108.174,100.889,107.46C100.926,106.483,100.474,106.386,100.383,106.377C100.321,106.371,100.261,106.356,100.203,106.333L97.6833,105.21L93.5383,105.051C93.2453,105.039,93.0166,104.792,93.0279,104.499C93.0612,103.633,92.8645,101.835,92.0682,101.804L90.9534,101.761C90.7123,102.639,89.9226,103.254,89.0122,103.273L87.0345,104.641L86.1289,105.893L86.9949,108.325C87.0563,108.499,87.0228,108.693,86.9067,108.836C86.2855,109.602,85.4119,110.918,85.318,111.563ZM100.351,110.03C100.505,110.512,100.964,111.184,102.338,111.237C102.525,111.244,102.693,111.349,102.783,111.512C102.839,111.609,104.223,113.968,108.607,114.136C112.926,114.303,115.653,110.623,115.794,106.97C115.846,105.364,116.249,103.788,116.974,102.354C117.351,101.667,117.582,100.91,117.651,100.13C117.721,98.3287,115.024,89.396,106.912,89.084C99.0971,88.7834,99.0971,88.7834,97.4501,89.9429L97.0869,90.1947C95.0568,91.5989,93.3508,95.6195,93.3338,95.6603C93.3045,95.7299,93.2607,95.7925,93.205,95.844C92.8632,96.1605,91.2977,97.5655,90.0914,97.9104L90.0576,98.789C90.612,99.2776,90.9545,99.9633,91.0113,100.7L92.1091,100.742C93.7611,100.806,94.0468,102.957,94.0877,104.008L97.826,104.152C97.8934,104.155,97.9604,104.17,98.022,104.197L100.558,105.327C101.148,105.609,102.011,105.935,101.95,107.501C101.912,108.489,101.122,109.386,100.351,110.03Z" fill="rgb(140,64,11)" stroke="none" stroke-width="1"></path><path id="euQbB6zmqYj33" d="M93.3467,100.32C93.0797,100.312,92.8141,100.277,92.5532,100.217C92.3678,100.173,92.2206,100.032,92.1671,99.8495L91.6974,98.2365C91.6472,98.0634,91.6879,97.8768,91.8058,97.7404L93.9946,95.2105L94.4445,94.391L94.0358,92.4391L95.0756,92.2217L95.5248,94.3656C95.5508,94.4894,95.5315,94.6189,95.4709,94.7298L95.1056,95.3952C95.4919,95.8141,95.9861,96.6641,95.9258,98.2312C95.9351,98.8615,95.6499,99.4598,95.1549,99.8496C94.6228,100.206,93.9854,100.372,93.3467,100.32ZM93.0982,99.2341C93.5839,99.324,94.0857,99.2418,94.5166,99.0005C94.7519,98.799,94.8804,98.4999,94.8641,98.1903C94.9319,97.5321,94.7921,96.8696,94.4638,96.2951L92.8008,98.2173L93.0982,99.2341Z" fill="rgb(140,64,11)" stroke="none" stroke-width="1"></path><path id="euQbB6zmqYj34" d="M102.032,105.377C101.944,105.374,101.857,105.348,101.781,105.303L96.0636,101.893C95.8116,101.742,95.7295,101.417,95.8795,101.164C95.9233,101.091,95.9847,101.029,96.0577,100.984C96.5118,100.704,97.4568,99.938,97.4792,99.354C97.5075,98.6177,96.852,97.3735,96.5969,96.957L97.5035,96.4017C97.6145,96.583,98.5866,98.2068,98.5409,99.3949C98.5095,100.211,97.8438,100.934,97.2945,101.392L102.144,104.284L104.085,103.877L104.303,104.917L102.159,105.366C102.117,105.375,102.075,105.379,102.032,105.377Z" fill="rgb(140,64,11)" stroke="none" stroke-width="1"></path><path id="euQbB6zmqYj35" d="M107.587,113.034C105.533,112.955,104.882,111.145,104.407,109.824C104.225,109.318,103.999,108.688,103.799,108.578C103.043,108.24,102.229,108.048,101.401,108.011L101.441,106.949C102.434,106.991,103.409,107.228,104.311,107.644C104.863,107.948,105.115,108.649,105.407,109.461C105.924,110.902,106.386,111.924,107.628,111.972C110.191,112.071,112.612,112.164,115.15,109.91L115.855,110.705C112.998,113.242,110.247,113.136,107.587,113.034Z" fill="rgb(140,64,11)" stroke="none" stroke-width="1"></path><path id="euQbB6zmqYj36" d="M95.0073,108.297C91.1746,108.15,86.5405,104.826,86.3449,104.685L86.9682,103.824C87.0131,103.857,91.5387,107.1,95.0482,107.235L95.0073,108.297Z" fill="rgb(140,64,11)" stroke="none" stroke-width="1"></path><path id="euQbB6zmqYj37" d="M93.7689,109.832C90.78,109.032,87.9139,107.83,85.2497,106.257L85.816,105.355C88.3928,106.865,91.159,108.024,94.0413,108.804L93.7689,109.832Z" fill="rgb(140,64,11)" stroke="none" stroke-width="1"></path><path id="euQbB6zmqYj38" d="M87.4572,109.26C87.3776,108.524,87.4083,107.78,87.549,107.053C87.6611,106.419,87.8829,105.809,88.2032,105.25C88.2662,105.146,88.2988,105.099,88.2988,105.099L89.1798,105.693L89.1125,105.797C88.858,106.25,88.6822,106.742,88.5929,107.254C88.4726,107.879,88.4464,108.518,88.5152,109.15L87.4572,109.26Z" fill="rgb(140,64,11)" stroke="none" stroke-width="1"></path><path id="euQbB6zmqYj39" d="M89.0454,109.792C88.9768,109.101,89.0392,108.404,89.2308,107.737C89.4017,107.038,89.861,106.444,90.4951,106.103C90.5612,106.069,90.6303,106.043,90.7023,106.024L90.9496,107.058C90.5902,107.28,90.3366,107.638,90.2458,108.051C90.0948,108.591,90.047,109.155,90.1053,109.712L89.0454,109.792Z" fill="rgb(140,64,11)" stroke="none" stroke-width="1"></path><path id="euQbB6zmqYj40" d="M91.0138,110.312C90.8644,109.705,90.8488,109.074,90.9686,108.461C91.1026,107.81,91.4511,107.222,91.9583,106.793C92.0166,106.743,92.0799,106.699,92.1473,106.663L92.6427,107.604C92.3167,107.884,92.0936,108.265,92.0089,108.686C91.9225,109.147,91.9372,109.622,92.0521,110.077L91.0138,110.312Z" fill="rgb(140,64,11)" stroke="none" stroke-width="1"></path></g></g><clipPath id="euQbB6zmqYj41"><rect id="euQbB6zmqYj42" width="34" height="34" rx="0" ry="0" transform="matrix(0.999261 0.038432 -0.038432 0.999261 85.3086 84)" fill="rgb(255,255,255)" stroke="none" stroke-width="1"></rect></clipPath></g></svg>