<svg xmlns="http://www.w3.org/2000/svg" width="176" height="42" viewBox="0 0 176 42" fill="none"><g clip-path="url(#clip0_723_24)"><path fill-rule="evenodd" clip-rule="evenodd" d="M12.5547 41.1208H35.4431V40.3255H29.0166V19.7883H34.8169C37.4831 19.7883 42.4728 19.9596 43.0561 27.5835L43.4615 32.7566C43.9262 38.502 45.5476 41.5185 51.7534 41.5185C54.9996 41.5185 56.0377 40.665 56.8584 40.0377L56.3344 39.4137C55.512 40.1603 54.439 40.5848 53.3188 40.6068C51.058 40.6068 50.2473 38.7283 49.7826 36.7269C49.2025 34.1081 49.4332 28.7604 48.5632 25.802C47.057 20.6289 40.2713 19.5426 37.7764 19.2031V19.0899C46.767 17.9518 47.993 12.2614 47.993 10.037C47.9646 8.65297 47.6157 7.2934 46.9728 6.06111C46.3299 4.82882 45.4098 3.75607 44.2821 2.924C41.2666 0.592869 37.9017 0.421509 33.38 0.421509C32.4506 0.421509 31.5246 0.45061 30.5952 0.479709C29.6658 0.508807 28.7397 0.592867 27.8136 0.592867H14.9902L17.8212 1.38823H23.2195V40.3255H15.5043L12.5547 41.1208ZM29.0166 1.41086C30.331 1.28773 31.651 1.23054 32.9714 1.2395C37.0316 1.2395 41.6126 2.20946 41.6126 10.1728C41.6126 17.1694 38.6465 18.9897 34.3621 18.9897H29.0166V1.41086Z" fill="#000002"></path><path fill-rule="evenodd" clip-rule="evenodd" d="M65.9443 6.53227C66.1157 7.47312 65.3016 8.27495 63.5187 8.93129C61.7357 9.58763 59.4881 9.91741 56.8054 9.91741C53.29 9.91741 48.8958 9.38609 43.6227 8.32345L42.8944 8.15856C41.3421 7.83524 39.7075 7.46342 38.0168 7.04311C32.5592 5.71104 28.3847 5.045 25.4933 5.045C24.6096 5.05074 23.7279 5.12643 22.8567 5.27132H22.837C18.5526 5.86623 14.8186 7.9581 11.6317 11.5178C8.37337 15.1584 7.07157 18.772 7.72631 22.3587C7.96101 23.6765 8.63995 24.8789 9.65428 25.7729C10.5881 26.6627 11.8361 27.1643 13.1378 27.1729C16.5301 27.1729 19.4962 25.1834 22.0361 21.2045C22.4606 20.5435 22.85 19.8614 23.2028 19.1611V22.2843C20.5662 25.9486 17.3629 27.7732 13.5926 27.7581C12.069 27.7855 10.5888 27.2592 9.43677 26.2806C8.26387 25.2921 7.48906 23.9255 7.25174 22.4266C6.5926 18.8184 7.84276 15.1659 11.0022 11.4693C14.1617 7.77273 18.0066 5.43837 22.537 4.46626C20.6684 2.30326 18.2 1.18134 15.1482 1.18134C10.142 1.18134 6.07519 3.63856 2.85862 8.38811C2.62133 8.7373 2.42689 8.87632 2.38734 8.87632C2.32725 8.87223 2.26977 8.85066 2.22222 8.81438C2.17468 8.7781 2.13923 8.72876 2.12039 8.67263C2.06107 8.32992 2.71251 7.41385 4.07472 5.92443C7.23197 2.48108 10.8242 0.612305 14.8548 0.612305C18.3746 0.612305 21.1628 1.90558 23.2061 4.23347V4.3434H23.3049C27.2213 3.45811 31.2762 3.33181 35.2419 3.97158C36.7469 4.23455 40.4018 5.01375 46.2065 6.30918L47.1952 6.57106L51.2621 7.44402C54.2869 8.14895 57.3813 8.52626 60.49 8.56917C61.7121 8.59939 62.9284 8.39284 64.0691 7.96133C65.0578 7.56042 65.4895 7.1013 65.3873 6.58076C65.2819 5.99555 64.5502 5.47825 63.1957 5.045C61.6643 4.58947 60.0698 4.3713 58.4697 4.39836C54.2227 4.39836 50.459 5.12475 47.1788 6.57753L47.0667 6.34474L46.9514 6.12165L46.9052 6.03435C50.4192 4.64405 54.1668 3.9094 57.9556 3.86812C60.201 3.86812 62.0532 4.11277 63.5121 4.60205C64.9655 5.0838 65.7729 5.7272 65.9179 6.54197L65.9443 6.53227ZM41.5926 9.58439V9.51649V9.30634L41.5761 9.00565V8.88279C37.0039 11.5275 33.0184 16.2997 29.6194 23.1993H28.7527C27.5724 23.191 26.4194 23.5473 25.457 24.2178C24.4837 24.8924 24.0662 25.6124 24.2047 26.3776C24.2105 26.4425 24.2421 26.5025 24.2927 26.5449C24.3432 26.5872 24.4086 26.6084 24.4749 26.6039C24.5968 26.6039 24.6792 26.4681 24.732 26.203C25.2725 24.5605 26.627 23.7393 28.812 23.7393H29.3591C29.2404 23.9882 29.1317 24.2243 29.0295 24.4376V32.4495C29.8205 31.1821 30.763 29.1344 31.8572 26.3064C32.2032 25.3688 32.4867 24.664 32.6679 24.1855L33.248 24.3019C34.3454 24.4797 35.1825 24.5864 35.7626 24.6446C34.9452 27.7743 33.9005 29.5418 32.6284 29.947C32.4471 30.0052 32.3614 30.0828 32.3779 30.1701C32.3944 30.2574 32.5493 30.3479 32.8195 30.3479C33.6171 30.3479 34.4047 29.9664 35.1825 29.184C35.9566 28.3985 36.5017 27.4238 36.7612 26.3614C37.0182 25.4238 37.1665 24.9259 37.2127 24.845H37.7993C39.2955 24.845 40.4655 24.5831 41.296 24.0529C42.1265 23.5227 42.4627 22.8501 42.3111 22.0095C42.1199 20.9523 41.3224 20.435 39.9514 20.435C37.9278 20.435 36.5865 21.6668 35.9471 24.1337L32.8525 23.6714C34.4828 19.2699 36.124 15.902 37.7762 13.5677C38.8178 12.0441 40.107 10.6985 41.5926 9.58439ZM23.2193 37.8489C19.7754 40.0544 15.7476 41.2201 11.635 41.2017C8.66888 41.2017 6.1411 40.5971 4.02528 39.3847C1.90947 38.1722 0.686765 36.6041 0.34072 34.6965C0.147392 33.8571 0.29517 32.9768 0.752679 32.2426C0.946821 31.9257 1.22273 31.6647 1.55256 31.4859C1.88238 31.3071 2.25445 31.2168 2.63121 31.2241C3.91982 31.2241 4.67123 31.8707 4.90522 33.1414C4.96518 33.4044 4.9686 33.6769 4.91526 33.9413C4.86192 34.2057 4.75299 34.4563 4.59543 34.6771C4.45259 34.8841 4.25849 35.0519 4.03135 35.1651C3.80421 35.2782 3.55149 35.3328 3.29693 35.3238C2.35767 35.3238 1.81059 34.8841 1.6491 33.982C1.62603 33.5229 1.52387 33.2998 1.35579 33.2998C0.986677 33.2998 0.897688 33.7977 1.08225 34.8162C1.37556 36.4328 2.46972 37.7875 4.37791 38.9223C6.33092 40.0722 8.57318 40.6624 10.8506 40.6262C14.6406 40.6262 17.8374 39.5107 20.4641 37.2896C21.4803 36.4134 22.4034 35.4384 23.2193 34.3797V37.8651V37.8489ZM41.7837 22.0677C41.6354 21.2562 41.0818 20.8456 40.1359 20.8456C38.877 20.8456 37.9707 21.8155 37.4302 23.791L37.2918 24.2986H38.0201C39.2263 24.2986 40.1853 24.0949 40.8972 23.6714C41.6091 23.2478 41.9024 22.7241 41.7837 22.0677Z" fill="#795723"></path><path fill-rule="evenodd" clip-rule="evenodd" d="M70.3281 20.8312H77.5719V20.5221H75.0728V12.5487H77.322C78.3579 12.5487 80.2956 12.6126 80.5201 15.576L80.6795 17.5836C80.857 19.815 81.4908 20.9876 83.8994 20.9876C85.1598 20.9876 85.5654 20.6571 85.8805 20.412L85.6777 20.1703C85.3587 20.4599 84.9424 20.6243 84.5078 20.6323C83.6277 20.6323 83.3126 19.9038 83.1315 19.1328C82.907 18.1166 82.9975 16.0379 82.6607 14.8902C82.0739 12.8791 79.4408 12.4598 78.4701 12.3284V12.2822C81.9617 11.8416 82.4542 9.63147 82.4542 8.77159C82.4421 8.23323 82.3053 7.70462 82.0543 7.22572C81.8033 6.74681 81.4447 6.33014 81.0055 6.00718C79.832 5.10111 78.5281 5.03715 76.7715 5.03715C76.4093 5.03715 76.0471 5.05846 75.6849 5.05846C75.3227 5.05846 74.9605 5.1011 74.5983 5.1011H70.3281V5.41379H72.8272V20.5257H70.3281V20.8348V20.8312ZM75.0801 5.41379C75.4604 5.37115 76.0688 5.34983 76.6085 5.34983C78.1876 5.34983 79.966 5.72291 79.966 8.81777C79.966 11.536 78.8178 12.2431 77.1518 12.2431H75.0801V5.41379ZM87.4416 12.9502C87.4416 17.214 90.752 21.1688 95.2794 21.1688C99.6691 21.1688 103.114 17.079 103.114 12.9502C103.103 8.25637 99.2417 4.70314 95.2794 4.70314C91.585 4.70314 87.4416 8.23861 87.4416 12.9466V12.9502ZM90.0312 12.9502C90.0312 8.88529 90.886 5.01938 95.2794 5.01938C99.6727 5.01938 100.524 8.88529 100.524 12.9502C100.524 18.2516 99.1512 20.8597 95.2794 20.8597C91.4075 20.8597 90.0312 18.2516 90.0312 12.9502ZM92.103 4.11331H92.4181L95.2794 1.79305L98.137 4.11331H98.4521L95.9168 0.421509H94.6564L92.1211 4.11331H92.103ZM105.232 20.8348H110.567V20.5257H108.068V5.69804H108.115L113.476 20.8561L118.854 5.54526H118.901V20.5221H116.402V20.8312H123.646V20.5221H121.147V5.41379H123.646V5.10466H118.677L114.508 16.9902H114.465L110.299 5.10466H105.229V5.41379H107.728V20.5257H105.229V20.8348H105.232ZM124.711 5.41379H127.21V15.8603C127.21 19.4419 129.191 21.1652 132.773 21.1652C135.138 21.1652 136.511 20.4546 137.322 19.3886C138.056 18.4561 138.424 17.2959 138.358 16.1197V5.41379H140.857V5.10466H135.522V5.41379H138.021V15.6897C138.021 17.8217 137.659 18.4293 137.076 19.2003C136.152 20.4155 134.845 20.8597 133.179 20.8597C130.77 20.8597 129.463 19.6196 129.463 16.0877V5.41379H131.962V5.10466H124.718V5.41379H124.711ZM142.005 20.8348H155.769V15.9953H155.522C154.845 18.7775 153.404 20.5221 150.77 20.5221H146.757V5.41379H149.256V5.10466H142.013V5.41379H144.512V20.5257H142.013V20.8348H142.005ZM158.286 12.9502C158.286 17.214 161.596 21.1688 166.124 21.1688C170.517 21.1688 173.961 17.079 173.961 12.9502C173.961 8.24215 170.086 4.7067 166.124 4.7067C162.433 4.7067 158.286 8.24215 158.286 12.9502ZM160.875 12.9502C160.875 8.88529 161.734 5.01938 166.124 5.01938C170.513 5.01938 171.372 8.88529 171.372 12.9502C171.372 18.2516 169.999 20.8597 166.124 20.8597C162.248 20.8597 160.875 18.2516 160.875 12.9502Z" fill="#000002"></path><path fill-rule="evenodd" clip-rule="evenodd" d="M70.3281 41.1852H77.5719V40.8761H75.0728V33.2295H76.8838C79.0569 33.2295 79.4191 34.8427 79.8139 36.5447H80.0602V29.6763H79.8139C79.1583 32.327 78.5281 32.924 76.5252 32.924H75.0764V25.7678H78.8142C81.2916 25.7678 82.1898 26.983 82.9577 29.2819H83.204V25.4551H70.3281V25.7678H72.8272V40.8796H70.3281V41.1888V41.1852ZM85.4169 41.1852H92.6607V40.8761H90.158V25.7678H92.6607V25.4586H85.4169V25.7678H87.916V40.8796H85.4169V41.1888V41.1852ZM95.0983 41.1852H95.4351C95.4651 41.0357 95.5515 40.9029 95.6771 40.8132C95.8027 40.7236 95.9582 40.6839 96.1124 40.702C96.6303 40.702 97.3945 41.0111 97.9813 41.1852C98.9031 41.4406 99.86 41.5533 100.817 41.5192C104.378 41.5192 106.54 39.032 106.54 36.3031C106.54 33.2757 103.813 32.6148 102.686 32.2595L99.9625 31.421C98.4087 30.9342 96.7028 30.2946 96.7028 28.3936C96.7028 26.052 98.952 25.3698 100.419 25.3698C102.983 25.3698 104.312 27.3347 104.675 29.456H104.943V25.4551H104.627C104.403 25.8779 104.338 25.9206 103.954 25.9206C103.099 25.9206 102.505 25.0571 100.419 25.0571C97.5213 25.0571 95.4858 27.0256 95.4858 29.6976C95.4858 31.7088 96.7462 32.8565 99.1801 33.5849L101.77 34.3595C103.03 34.7361 104.787 35.5747 104.787 37.6284C104.787 39.0497 103.976 41.2101 100.803 41.2101C99.1367 41.2101 96.3659 41.2314 95.3301 36.4381H95.0838V41.1852H95.0983ZM123.541 36.4807H123.291C122.686 38.7335 122.009 41.2101 118 41.2101C114.892 41.2101 112.755 39.5721 112.755 33.3646C112.755 30.053 113.204 25.3698 118 25.3698C121.448 25.3698 122.436 27.6226 122.976 29.8753H123.226V25.4551H122.889C122.781 25.6123 122.632 25.7383 122.457 25.8201C122.283 25.902 122.089 25.9366 121.897 25.9206C120.995 25.9206 120.086 25.0571 118.202 25.0571C113.617 25.0571 110.169 28.9657 110.169 33.3646C110.166 34.4825 110.393 35.5894 110.839 36.6185C111.284 37.6475 111.937 38.5774 112.759 39.3518C113.447 40.0435 114.27 40.592 115.179 40.9644C116.089 41.3368 117.065 41.5255 118.05 41.5192C120.122 41.5192 121.339 40.7233 122.215 40.7233C122.407 40.7144 122.597 40.7519 122.77 40.8325C122.944 40.913 123.094 41.0342 123.208 41.1852H123.545V36.4807H123.541ZM125.352 41.1852H132.596V40.8761H130.093V33.3006H137.623V40.8761H135.124V41.1852H142.368V40.8761H139.868V25.7678H142.368V25.4586H135.124V25.7678H137.623V32.995H130.122V25.7678H132.625V25.4586H125.381V25.7678H127.88V40.8796H125.381V41.1888L125.352 41.1852ZM143.704 41.1852H157.442V36.3493H157.192C157.011 37.696 156 40.8761 152.712 40.8761H148.478V32.9026H150.289C152.462 32.9026 152.824 34.5158 153.219 36.2143H153.465V29.3459H153.219C152.563 31.9966 151.933 32.5935 149.93 32.5935H148.481V25.7678H152.219C154.697 25.7678 155.598 26.983 156.363 29.2819H156.609V25.4551H143.726V25.7678H146.225V40.8796H143.726V41.1888L143.704 41.1852ZM159.557 41.1852H166.801V40.8761H164.302V32.9026H166.555C167.59 32.9026 169.525 32.9666 169.753 35.93L169.909 37.9376C170.09 40.169 170.72 41.3416 173.128 41.3416C174.389 41.3416 174.794 41.0111 175.11 40.7659L174.907 40.5243C174.588 40.8145 174.172 40.979 173.737 40.9862C172.86 40.9862 172.545 40.2578 172.364 39.4868C172.14 38.4706 172.23 36.3919 171.89 35.2442C171.307 33.2331 168.67 32.8138 167.703 32.6823V32.6362C171.194 32.1956 171.665 29.9855 171.665 29.1256C171.653 28.5872 171.516 28.0586 171.265 27.5797C171.014 27.1008 170.656 26.6841 170.216 26.3612C169.046 25.4551 167.739 25.3911 165.982 25.3911C165.62 25.3911 165.258 25.4125 164.896 25.4125C164.534 25.4125 164.171 25.4551 163.809 25.4551H159.579V25.7678H162.078V40.8796H159.579V41.1888L159.557 41.1852ZM164.331 25.7678C164.715 25.7251 165.32 25.7038 165.863 25.7038C167.438 25.7038 169.217 26.0769 169.217 29.1718C169.217 31.89 168.069 32.5971 166.403 32.5971H164.331V25.7678Z" fill="#000002"></path></g><defs><clipPath id="clip0_723_24"><rect width="175" height="41.0615" fill="white" transform="translate(0.257812 0.444092)"></rect></clipPath></defs></svg>